<svg xmlns="http://www.w3.org/2000/svg" viewBox="0 0 30 30" x="0px" y="0px">
	<g data-name="Layer 2">
		<path fill="white" d="M27,6H5A3,3,0,0,0,2,9V23a3,3,0,0,0,3,3H27a3,3,0,0,0,3-3V9A3,3,0,0,0,27,6Zm1,17a1,1,0,0,1-1,1H5a1,1,0,0,1-1-1V9A1,1,0,0,1,5,8H27a1,1,0,0,1,1,1Z" />
		<path fill="white" d="M11,13h2a1,1,0,0,0,0-2H11a3,3,0,0,0-3,3v4a3,3,0,0,0,3,3h2a1,1,0,0,0,0-2H11a1,1,0,0,1-1-1V14A1,1,0,0,1,11,13Z" />
		<path fill="white" d="M21,13h2a1,1,0,0,0,0-2H21a3,3,0,0,0-3,3v4a3,3,0,0,0,3,3h2a1,1,0,0,0,0-2H21a1,1,0,0,1-1-1V14A1,1,0,0,1,21,13Z" />
	</g>
</svg>
